<svg id="Text" xmlns="http://www.w3.org/2000/svg" viewBox="0 0 14.17 14.17"><defs><style>.cls-1{fill:#a55575;opacity:0;}.cls-2{fill:#a45474;opacity:0.04;}.cls-3{fill:#a35273;opacity:0.07;}.cls-4{fill:#a35172;opacity:0.11;}.cls-5{fill:#a24f72;opacity:0.15;}.cls-6{fill:#a24e71;opacity:0.19;}.cls-7{fill:#a14c70;opacity:0.22;}.cls-8{fill:#a04b6f;opacity:0.26;}.cls-9{fill:#a0496e;opacity:0.3;}.cls-10{fill:#9f486e;opacity:0.33;}.cls-11{fill:#9e466d;opacity:0.37;}.cls-12{fill:#9e456c;opacity:0.41;}.cls-13{fill:#9d436b;opacity:0.44;}.cls-14{fill:#9d426a;opacity:0.48;}.cls-15{fill:#9c416a;opacity:0.52;}.cls-16{fill:#9b3f69;opacity:0.56;}.cls-17{fill:#9b3e68;opacity:0.59;}.cls-18{fill:#9a3c68;opacity:0.63;}.cls-19{fill:#9a3a67;opacity:0.67;}.cls-20{fill:#993966;opacity:0.7;}.cls-21{fill:#993765;opacity:0.74;}.cls-22{fill:#983665;opacity:0.78;}.cls-23{fill:#973464;opacity:0.81;}.cls-24{fill:#973263;opacity:0.85;}.cls-25{fill:#963163;opacity:0.89;}.cls-26{fill:#962f62;opacity:0.93;}.cls-27{fill:#952e61;opacity:0.96;}.cls-28{fill:#942c61;}</style></defs><title>button</title><circle class="cls-1" cx="7.09" cy="7.09" r="7.09"/><circle class="cls-2" cx="7.09" cy="7.09" r="6.96"/><circle class="cls-3" cx="7.09" cy="7.09" r="6.84"/><circle class="cls-4" cx="7.09" cy="7.09" r="6.72"/><circle class="cls-5" cx="7.09" cy="7.09" r="6.6"/><circle class="cls-6" cx="7.09" cy="7.09" r="6.48"/><circle class="cls-7" cx="7.09" cy="7.09" r="6.35"/><circle class="cls-8" cx="7.09" cy="7.09" r="6.23"/><circle class="cls-9" cx="7.09" cy="7.09" r="6.11"/><circle class="cls-10" cx="7.09" cy="7.09" r="5.99"/><circle class="cls-11" cx="7.09" cy="7.09" r="5.87"/><circle class="cls-12" cx="7.09" cy="7.09" r="5.75"/><circle class="cls-13" cx="7.09" cy="7.09" r="5.62"/><circle class="cls-14" cx="7.09" cy="7.09" r="5.5"/><circle class="cls-15" cx="7.09" cy="7.09" r="5.38"/><circle class="cls-16" cx="7.09" cy="7.09" r="5.26"/><circle class="cls-17" cx="7.09" cy="7.09" r="5.14"/><circle class="cls-18" cx="7.09" cy="7.09" r="5.01"/><circle class="cls-19" cx="7.09" cy="7.09" r="4.89"/><circle class="cls-20" cx="7.09" cy="7.09" r="4.77"/><circle class="cls-21" cx="7.09" cy="7.09" r="4.65"/><circle class="cls-22" cx="7.09" cy="7.09" r="4.53"/><circle class="cls-23" cx="7.09" cy="7.09" r="4.4"/><circle class="cls-24" cx="7.09" cy="7.09" r="4.28"/><circle class="cls-25" cx="7.09" cy="7.09" r="4.16"/><circle class="cls-26" cx="7.09" cy="7.09" r="4.04"/><circle class="cls-27" cx="7.09" cy="7.09" r="3.92"/><circle class="cls-28" cx="7.09" cy="7.09" r="3.79"/></svg>