<svg id="Text" xmlns="http://www.w3.org/2000/svg" viewBox="0 0 148.4 106.9"><defs><style>.cls-1{fill:#6d6863;}.cls-2,.cls-3,.cls-4,.cls-5{fill:none;stroke-linecap:round;}.cls-2{stroke:#a55575;}.cls-2,.cls-3,.cls-4{stroke-width:0.75px;}.cls-3,.cls-4{stroke:#8b425f;}.cls-3{opacity:0.45;}.cls-4{opacity:0.2;}.cls-5{stroke:#635a54;stroke-width:0.5px;stroke-dasharray:0 1;}.cls-6{font-size:9px;fill:#fff;}.cls-6,.cls-7,.cls-9{font-family:Source Sans Pro;}.cls-7,.cls-9{font-size:8px;fill:#231f20;}.cls-8,.cls-9{font-weight:700;}</style></defs><title>virus4</title><path class="cls-1" d="M-105.34,620.07l0-.64-0.07-.28-0.11,0c-0.26,0-.33-0.75-0.33-0.75a0.38,0.38,0,0,1,.18-0.5l0-.39v-0.3a1.58,1.58,0,0,1,1.75-1.43,1.7,1.7,0,0,1,1.51,2l0.06,0.15c0.35,0.09.07,0.92,0.07,0.92,0,0.35-.21.36-0.21,0.36l0,0.42-0.1.83a0.74,0.74,0,0,0,.36.64,13.69,13.69,0,0,0,2.07.86l0.51,0.08,0.24,0.13c1.21,0.39,1.12,2.89,1.12,2.89a2,2,0,0,0,0,.55,4.9,4.9,0,0,1,.21,1.7,7.19,7.19,0,0,0,.52,1.54,22.87,22.87,0,0,1,.88,4.45l0.15,0.5,0.06,0.72,0.29,1,0,0.55-0.1.38-0.1.41-0.11.35-0.23.17-0.29.13-0.56,0c0-.22.3-0.19,0.3-0.19l0.2-.13a0.21,0.21,0,0,1,0-.36l-0.1-.21-0.18.17-0.12.22c-0.19.19-.21,0-0.21,0l0-.41,0-.34-0.1-.41,0-.29a1.35,1.35,0,0,1,.35-1.1l-0.08-.24-0.25-.64-0.34-.55a8.58,8.58,0,0,1-.74-1.19,8.07,8.07,0,0,1-.37-1.53,3.81,3.81,0,0,1-.26-1.11l-0.3-1.25-0.34-.75a4.92,4.92,0,0,0-.07,2.19l0.11,0.55c0.31,0.91.08,1,.08,1a1.22,1.22,0,0,0,0,.75l0.07,0.56,0.06,0.54,0.08,0.55a5.36,5.36,0,0,1,.1,2.19l-0.05.67-0.16,1.4a24,24,0,0,1-1,4.48l-0.15.24-0.12.38v0.83l0,0.37,0,0.37a7.6,7.6,0,0,1-.39,3.47l-1,3.32a5.3,5.3,0,0,0-.17.73,2,2,0,0,0,.18.72l0.61,0.79,0.42,0.33,0.21,0.14c0,0.31-.23.28-0.23,0.28-0.08.24-.24,0-0.24,0a0.21,0.21,0,0,1-.38,0c0,0.2-.26.08-0.26,0.08l-0.22,0a1.22,1.22,0,0,1-.89-0.22,0.36,0.36,0,0,0-.37-0.16c-0.93.06-.18-1.16-0.18-1.16a0.64,0.64,0,0,0,0-.42,0.72,0.72,0,0,1,.13-0.49,3.24,3.24,0,0,0,.19-0.69v-2.55a3.59,3.59,0,0,0,0-.71,6.14,6.14,0,0,1,.44-3.6l0.07-.29a8,8,0,0,1-.15-2.57,18,18,0,0,0-.18-2.38l0-1.63-0.15.37c-0.13.75-.82,3-0.82,3l-0.49,1.84-0.31,1.23a2.77,2.77,0,0,1-.82,1.21l-0.06.78a3.13,3.13,0,0,1-.84,2.08l-0.76,1.75a1.57,1.57,0,0,0-.11.6,0.85,0.85,0,0,1,0,.78l-0.15.16,0,0.43-0.14.2-0.33.77-0.21.6-0.07.46a0.52,0.52,0,0,1-.46.36h-0.41l-0.3-.09c-0.41.29-.41,0-0.41,0-0.47,0-.4-0.52-0.4-0.52a0.62,0.62,0,0,1,0-.76l0.29-.31,0.49-.44,0.27-.34,0.29-.46,0.1-.27a0.46,0.46,0,0,1,.1-0.51l0.16-.34v-1.53c0-3.58,1-4.39,1-4.39l0.36-.66a1.7,1.7,0,0,0,.17-1,16.25,16.25,0,0,1,0-5.64l0.12-1.19,0-.92,0-.86a2.7,2.7,0,0,1,0-1.3,1.76,1.76,0,0,0,0-.69,2.77,2.77,0,0,1-.1-1.19v-1l0-.3-0.05-.28-0.1-.23-0.07-.35,0-.34-0.11-.28a1.77,1.77,0,0,1-.08-0.22l-0.1.22-0.29,1.25a3.85,3.85,0,0,1-.26,1.11,8,8,0,0,1-.38,1.54,8.62,8.62,0,0,1-.74,1.19l-0.34.55-0.25.64-0.08.24a1.33,1.33,0,0,1,.34,1.09l0,0.3-0.1.4,0,0.34,0,0.41s0,0.22-.21,0l-0.12-.22-0.18-.17-0.1.2a0.2,0.2,0,0,1,0,.35l0.2,0.13s0.34,0,.3.19l-0.56,0-0.29-.12-0.22-.17-0.12-.34-0.1-.41-0.1-.37,0-.55,0.3-1,0.06-.72,0.15-.5a22.64,22.64,0,0,1,.89-4.45,7.46,7.46,0,0,0,.53-1.53,4.9,4.9,0,0,1,.21-1.71,2,2,0,0,0,0-.54s-0.09-2.3,1-2.84a1.48,1.48,0,0,1,.33-0.15l0.06,0h0.11a2,2,0,0,1,.37-0.06h0.11a1.31,1.31,0,0,0,.53-0.11,5.39,5.39,0,0,1,1.57-.56c0.31-.21.26-0.33,0.26-0.33v-0.58Z" transform="translate(157.33 -551.88)"/><path class="cls-1" d="M-105.34,576.59l0-.64-0.07-.28-0.11,0c-0.26,0-.33-0.75-0.33-0.75a0.38,0.38,0,0,1,.18-0.5l0-.39v-0.3a1.58,1.58,0,0,1,1.75-1.43,1.7,1.7,0,0,1,1.51,2l0.06,0.15c0.35,0.09.07,0.92,0.07,0.92,0,0.35-.21.36-0.21,0.36l0,0.42-0.1.83a0.74,0.74,0,0,0,.36.64,13.59,13.59,0,0,0,2.07.86l0.51,0.08,0.24,0.13c1.21,0.39,1.12,2.89,1.12,2.89a2,2,0,0,0,0,.55,4.91,4.91,0,0,1,.21,1.7,7.18,7.18,0,0,0,.52,1.54,22.88,22.88,0,0,1,.88,4.45l0.15,0.5,0.06,0.72,0.29,1,0,0.55-0.1.38-0.1.4-0.11.35-0.23.17-0.29.13-0.56,0c0-.22.3-0.19,0.3-0.19l0.2-.13a0.21,0.21,0,0,1,0-.36l-0.1-.2-0.18.17-0.12.22c-0.19.19-.21,0-0.21,0l0-.4,0-.34-0.1-.41,0-.29a1.35,1.35,0,0,1,.35-1.1l-0.08-.24-0.25-.64-0.34-.55a8.53,8.53,0,0,1-.74-1.19,8.06,8.06,0,0,1-.37-1.53,3.82,3.82,0,0,1-.26-1.11l-0.3-1.26-0.34-.75a4.92,4.92,0,0,0-.07,2.19l0.11,0.55c0.31,0.91.08,1,.08,1a1.22,1.22,0,0,0,0,.75l0.07,0.56,0.06,0.54,0.08,0.55a5.37,5.37,0,0,1,.1,2.19l-0.05.67-0.16,1.4a24,24,0,0,1-1,4.48l-0.15.24-0.12.38V600l0,0.37,0,0.37a7.61,7.61,0,0,1-.39,3.47l-1,3.32a5.3,5.3,0,0,0-.17.73,2,2,0,0,0,.18.72l0.61,0.79,0.42,0.33,0.21,0.14c0,0.31-.23.28-0.23,0.28-0.08.24-.24,0-0.24,0a0.21,0.21,0,0,1-.38,0c0,0.2-.26.08-0.26,0.08l-0.22,0a1.22,1.22,0,0,1-.89-0.22,0.36,0.36,0,0,0-.37-0.16c-0.93.06-.18-1.16-0.18-1.16a0.63,0.63,0,0,0,0-.42,0.72,0.72,0,0,1,.13-0.49,3.24,3.24,0,0,0,.19-0.69V605a3.59,3.59,0,0,0,0-.71,6.14,6.14,0,0,1,.44-3.6l0.07-.29a8,8,0,0,1-.15-2.57,18,18,0,0,0-.18-2.38l0-1.63-0.15.37c-0.13.75-.82,3-0.82,3l-0.49,1.84-0.31,1.23a2.78,2.78,0,0,1-.82,1.21l-0.06.78a3.14,3.14,0,0,1-.84,2.09l-0.76,1.75a1.57,1.57,0,0,0-.11.6,0.85,0.85,0,0,1,0,.78l-0.15.16,0,0.43-0.14.2-0.33.77-0.21.61L-109,610a0.52,0.52,0,0,1-.46.36h-0.41l-0.3-.09c-0.41.29-.41,0-0.41,0-0.47,0-.4-0.51-0.4-0.51a0.62,0.62,0,0,1,0-.76l0.29-.31,0.49-.44,0.27-.34,0.29-.46,0.1-.26a0.46,0.46,0,0,1,.1-0.52l0.16-.34v-1.53c0-3.58,1-4.39,1-4.39l0.36-.66a1.7,1.7,0,0,0,.17-1,16.25,16.25,0,0,1,0-5.64l0.12-1.19,0-.92,0-.86a2.7,2.7,0,0,1,0-1.3,1.76,1.76,0,0,0,0-.69,2.76,2.76,0,0,1-.1-1.19v-1l0-.3-0.05-.28-0.1-.23-0.07-.35,0-.34-0.11-.28a1.81,1.81,0,0,1-.08-0.22l-0.1.22-0.29,1.25a3.85,3.85,0,0,1-.26,1.11,8,8,0,0,1-.38,1.53,8.63,8.63,0,0,1-.74,1.19l-0.34.55-0.25.64-0.08.24a1.34,1.34,0,0,1,.34,1.09l0,0.3-0.1.4,0,0.34,0,0.41s0,0.22-.21,0l-0.12-.22-0.18-.17-0.1.2a0.2,0.2,0,0,1,0,.35l0.2,0.13s0.34,0,.3.19l-0.56,0-0.29-.12-0.22-.17-0.12-.34-0.1-.41-0.1-.38,0-.55,0.3-1,0.06-.72,0.15-.5a22.64,22.64,0,0,1,.89-4.45,7.47,7.47,0,0,0,.53-1.53,4.9,4.9,0,0,1,.21-1.71,2,2,0,0,0,0-.54s-0.09-2.3,1-2.84a1.44,1.44,0,0,1,.33-0.15l0.06,0h0.11a2.16,2.16,0,0,1,.37-0.06h0.11a1.29,1.29,0,0,0,.53-0.11,5.4,5.4,0,0,1,1.57-.56c0.31-.2.26-0.33,0.26-0.33v-0.58Z" transform="translate(157.33 -551.88)"/><path class="cls-2" d="M-95.38,579.59c5.33,10.67,0,21.71,0,21.71" transform="translate(157.33 -551.88)"/><path class="cls-3" d="M-92.37,581.59c2.6,6.82,1.24,13.51.12,17.07" transform="translate(157.33 -551.88)"/><path class="cls-4" d="M-89.62,583.44a26.32,26.32,0,0,1,.07,13.19" transform="translate(157.33 -551.88)"/><circle class="cls-1" cx="142.56" cy="34.41" r="4.56"/><circle class="cls-1" cx="142.56" cy="47.41" r="4.56"/><line class="cls-5" x1="139.8" y1="34.56" x2="72.37" y2="35.69"/><polygon class="cls-1" points="73.5 34.61 72.55 35.68 73.61 36.64 72.75 36.68 71.68 35.72 72.64 34.65 73.5 34.61"/><line class="cls-5" x1="139.54" y1="47.5" x2="72.37" y2="40.91"/><polygon class="cls-1" points="73.64 39.99 72.54 40.93 73.48 42.02 72.61 41.95 71.68 40.86 72.78 39.92 73.64 39.99"/><line class="cls-5" x1="9.12" y1="34.41" x2="43.03" y2="38.23"/><polygon class="cls-1" points="41.76 39.14 42.86 38.21 41.93 37.11 42.79 37.18 43.72 38.28 42.62 39.21 41.76 39.14"/><line class="cls-5" x1="8.07" y1="34.31" x2="43.19" y2="74.82"/><polygon class="cls-1" points="41.62 74.83 43.05 74.7 42.93 73.27 43.59 73.83 43.72 75.26 42.28 75.39 41.62 74.83"/><line class="cls-5" x1="8.56" y1="94.55" x2="43.05" y2="83.41"/><polygon class="cls-1" points="42.13 84.68 42.88 83.45 41.65 82.71 42.49 82.5 43.72 83.25 42.97 84.48 42.13 84.68"/><circle class="cls-1" cx="4.56" cy="94.41" r="4.56"/><circle class="cls-1" cx="4.56" cy="74.41" r="4.56"/><circle class="cls-1" cx="4.56" cy="54.41" r="4.56"/><circle class="cls-1" cx="4.56" cy="34.41" r="4.56"/><text class="cls-6" transform="translate(1.85 97.21)">D</text><text class="cls-6" transform="translate(1.59 77.33)">C</text><text class="cls-6" transform="translate(1.85 57.21)">B</text><text class="cls-6" transform="translate(1.85 37.21)">A</text><text class="cls-6" transform="translate(139.85 37.21)">A</text><text class="cls-6" transform="translate(139.85 50.21)">A</text><text class="cls-7" transform="translate(67.08 6.64)"><tspan class="cls-8">R<tspan x="4.82" y="0">e</tspan><tspan x="8.97" y="0">c</tspan><tspan x="12.48" y="0">ov</tspan><tspan x="20.98" y="0">e</tspan><tspan x="25.12" y="0">r</tspan><tspan x="28.36" y="0">y f</tspan><tspan x="36.86" y="0">r</tspan><tspan x="39.96" y="0">om one</tspan></tspan><tspan x="0" y="8.53">gi</tspan><tspan x="6" y="8.53">v</tspan><tspan x="9.7" y="8.53">es li</tspan><tspan x="22.63" y="8.53">f</tspan><tspan x="24.89" y="8.53">elong </tspan><tspan class="cls-8" x="45.24" y="8.53">immunity </tspan><tspan x="0" y="16.53">t</tspan><tspan x="2.59" y="16.53">o th</tspan><tspan x="15.58" y="16.53">a</tspan><tspan x="19.5" y="16.53">t </tspan><tspan x="23.81" y="16.53">p</tspan><tspan x="28.14" y="16.53">articular </tspan><tspan x="58.06" y="16.53">s</tspan><tspan x="61.26" y="16.53">t</tspan><tspan x="63.96" y="16.53">r</tspan><tspan x="66.54" y="16.53">ain</tspan></text><text class="cls-9" transform="translate(67.13 64.38)">A se<tspan x="13.87" y="0">c</tspan><tspan x="17.38" y="0">ond in</tspan><tspan x="39.37" y="0">f</tspan><tspan x="42.02" y="0">e</tspan><tspan x="46.16" y="0">c</tspan><tspan x="49.82" y="0">tion </tspan><tspan x="0" y="8">b</tspan><tspan x="4.52" y="8">y one </tspan><tspan x="25.05" y="8">o</tspan><tspan x="29.45" y="8">f the di</tspan><tspan x="53.94" y="8">ff</tspan><tspan x="59.12" y="8">e</tspan><tspan x="63.26" y="8">r</tspan><tspan x="66.37" y="8">ent </tspan><tspan x="0" y="16">s</tspan><tspan x="3.38" y="16">t</tspan><tspan x="6.45" y="16">r</tspan><tspan x="9.41" y="16">ains </tspan><tspan x="25.55" y="16">c</tspan><tspan x="29.21" y="16">an l</tspan><tspan x="41.89" y="16">e</tspan><tspan x="45.94" y="16">ad </tspan><tspan x="56.34" y="16">t</tspan><tspan x="59.26" y="16">o </tspan><tspan x="0" y="24">dengue haemorrhagic </tspan><tspan x="0" y="32">f</tspan><tspan x="2.65" y="32">e</tspan><tspan x="6.74" y="32">v</tspan><tspan x="10.86" y="32">er (DHV), which has </tspan><tspan x="0" y="40">a 2.5% mor</tspan><tspan x="39.6" y="40">t</tspan><tspan x="42.5" y="40">ality </tspan><tspan x="60.05" y="40">r</tspan><tspan x="63.01" y="40">at</tspan><tspan x="70" y="40">e</tspan></text></svg>