<svg id="Picture" xmlns="http://www.w3.org/2000/svg" viewBox="0 0 65.18 72.64"><defs><style>.cls-1{fill:#a55575;}.cls-2{fill:none;stroke:#635a54;stroke-linecap:round;stroke-width:0.5px;stroke-dasharray:0 1;}.cls-3{fill:#6d6863;}.cls-4{font-size:9px;fill:#fff;font-family:Source Sans Pro;}</style></defs><title>virus3</title><path class="cls-1" d="M405.73,388.8l0-.64-0.07-.28-0.11,0c-0.26,0-.33-0.75-0.33-0.75a0.38,0.38,0,0,1,.18-0.5l0-.39v-0.3a1.58,1.58,0,0,1,1.75-1.43,1.7,1.7,0,0,1,1.51,2l0.06,0.15c0.35,0.09.07,0.92,0.07,0.92,0,0.35-.21.36-0.21,0.36l0,0.42-0.1.83a0.74,0.74,0,0,0,.36.64,13.69,13.69,0,0,0,2.07.86l0.51,0.08,0.24,0.13c1.21,0.39,1.12,2.89,1.12,2.89a2,2,0,0,0,0,.55A4.9,4.9,0,0,1,413,396a7.19,7.19,0,0,0,.52,1.54,22.87,22.87,0,0,1,.88,4.45l0.15,0.5,0.06,0.72,0.29,1,0,0.55-0.1.38-0.1.41-0.11.35-0.23.17-0.29.13-0.56,0c0-.22.3-0.19,0.3-0.19l0.2-.13a0.21,0.21,0,0,1,0-.36l-0.1-.21-0.18.17-0.12.22c-0.19.19-.21,0-0.21,0l0-.41,0-.34-0.1-.41,0-.29a1.35,1.35,0,0,1,.35-1.1l-0.08-.24-0.25-.64-0.34-.55a8.58,8.58,0,0,1-.74-1.19,8.07,8.07,0,0,1-.37-1.53,3.81,3.81,0,0,1-.26-1.11l-0.3-1.25-0.34-.75a4.92,4.92,0,0,0-.07,2.19l0.11,0.55c0.31,0.91.08,1,.08,1a1.22,1.22,0,0,0,0,.75l0.07,0.56,0.06,0.54,0.08,0.55a5.36,5.36,0,0,1,.1,2.19l-0.05.67-0.16,1.4a24,24,0,0,1-1,4.48l-0.15.24-0.12.38v0.83l0,0.37,0,0.37a7.6,7.6,0,0,1-.39,3.47l-1,3.32a5.3,5.3,0,0,0-.17.73,2,2,0,0,0,.18.72l0.61,0.8,0.42,0.33,0.21,0.14c0,0.31-.23.28-0.23,0.28-0.08.24-.24,0-0.24,0a0.21,0.21,0,0,1-.38,0c0,0.2-.26.08-0.26,0.08l-0.22,0a1.22,1.22,0,0,1-.89-0.22,0.36,0.36,0,0,0-.37-0.16c-0.93.06-.18-1.16-0.18-1.16a0.64,0.64,0,0,0,0-.42,0.72,0.72,0,0,1,.13-0.49,3.24,3.24,0,0,0,.19-0.69v-2.55a3.59,3.59,0,0,0,0-.71,6.14,6.14,0,0,1,.44-3.6l0.07-.29a8,8,0,0,1-.15-2.57,18,18,0,0,0-.18-2.38l0-1.63-0.15.37c-0.13.75-.82,3-0.82,3l-0.49,1.84-0.31,1.23a2.77,2.77,0,0,1-.82,1.21l-0.06.78a3.13,3.13,0,0,1-.84,2.08l-0.76,1.75a1.57,1.57,0,0,0-.11.6,0.85,0.85,0,0,1,0,.78l-0.15.16,0,0.43-0.14.2-0.33.77-0.21.6-0.07.46a0.52,0.52,0,0,1-.46.36h-0.41l-0.3-.09c-0.41.29-.41,0-0.41,0-0.47,0-.4-0.52-0.4-0.52a0.62,0.62,0,0,1,0-.76l0.29-.31,0.49-.44,0.27-.34,0.29-.46,0.1-.27a0.46,0.46,0,0,1,.1-0.51l0.16-.34V417c0-3.58,1-4.39,1-4.39l0.36-.66a1.7,1.7,0,0,0,.17-1,16.25,16.25,0,0,1,0-5.64l0.12-1.19,0-.92,0-.86a2.7,2.7,0,0,1,0-1.3,1.76,1.76,0,0,0,0-.69,2.77,2.77,0,0,1-.1-1.19v-1l0-.3-0.05-.28-0.1-.23-0.07-.35,0-.34-0.11-.28a1.77,1.77,0,0,1-.08-0.22l-0.1.22-0.29,1.25a3.85,3.85,0,0,1-.26,1.11,8,8,0,0,1-.38,1.54,8.62,8.62,0,0,1-.74,1.19l-0.34.55-0.25.64-0.08.24a1.33,1.33,0,0,1,.34,1.09l0,0.3-0.1.4,0,0.34,0,0.41s0,0.22-.21,0l-0.12-.22L400.3,405l-0.1.2a0.2,0.2,0,0,1,0,.35l0.2,0.13s0.34,0,.3.19l-0.56,0-0.29-.12-0.22-.17-0.12-.34-0.1-.41-0.1-.37,0-.55,0.3-1,0.06-.72,0.15-.5a22.64,22.64,0,0,1,.89-4.45,7.46,7.46,0,0,0,.53-1.53,4.9,4.9,0,0,1,.21-1.71,2,2,0,0,0,0-.54s-0.09-2.3,1-2.84a1.48,1.48,0,0,1,.33-0.15l0.06,0h0.11a2,2,0,0,1,.37-0.06h0.11a1.31,1.31,0,0,0,.53-0.11,5.39,5.39,0,0,1,1.57-.56c0.31-.21.26-0.33,0.26-0.33V388.8Z" transform="translate(-349.73 -350.25)"/><line class="cls-2" x1="8.07" y1="4.67" x2="47.19" y2="45.18"/><polygon class="cls-3" points="45.62 45.19 47.05 45.06 46.93 43.63 47.59 44.19 47.72 45.62 46.28 45.75 45.62 45.19"/><line class="cls-2" x1="8.56" y1="64.91" x2="47.05" y2="53.77"/><polygon class="cls-3" points="46.13 55.04 46.88 53.81 45.65 53.07 46.49 52.86 47.72 53.61 46.97 54.84 46.13 55.04"/><circle class="cls-3" cx="4.56" cy="64.77" r="4.56"/><circle class="cls-3" cx="4.56" cy="44.77" r="4.56"/><circle class="cls-3" cx="4.56" cy="24.77" r="4.56"/><circle class="cls-3" cx="4.56" cy="4.77" r="4.56"/><text class="cls-4" transform="translate(2.37 68.39)">D</text><text class="cls-4" transform="translate(1.54 47.69)">C</text><text class="cls-4" transform="translate(2.37 27.56)">B</text><text class="cls-4" transform="translate(1.54 7.47)">A</text></svg>