<svg id="Picture" xmlns="http://www.w3.org/2000/svg" viewBox="0 0 151.12 79.46"><defs><style>.cls-1{fill:#6d6863;}.cls-2,.cls-3,.cls-4,.cls-5{fill:none;stroke-linecap:round;}.cls-2{stroke:#a55575;}.cls-2,.cls-3,.cls-4{stroke-width:0.75px;}.cls-3,.cls-4{stroke:#8b425f;}.cls-3{opacity:0.45;}.cls-4{opacity:0.2;}.cls-5{stroke:#635a54;stroke-width:0.5px;stroke-dasharray:0 1;}.cls-6{font-size:9px;fill:#fff;font-family:Source Sans Pro;}</style></defs><title>virus2</title><path class="cls-1" d="M235.89,345.31l0-.64-0.07-.28-0.11,0c-0.26,0-.33-0.75-0.33-0.75a0.38,0.38,0,0,1,.18-0.5l0-.39v-0.3A1.58,1.58,0,0,1,237.3,341a1.7,1.7,0,0,1,1.51,2l0.06,0.15c0.35,0.09.07,0.92,0.07,0.92,0,0.35-.21.36-0.21,0.36l0,0.42-0.1.83a0.74,0.74,0,0,0,.36.64,13.59,13.59,0,0,0,2.07.86l0.51,0.08,0.24,0.13c1.21,0.39,1.12,2.89,1.12,2.89a2,2,0,0,0,0,.55,4.91,4.91,0,0,1,.21,1.7,7.18,7.18,0,0,0,.52,1.54,22.88,22.88,0,0,1,.88,4.45l0.15,0.5,0.06,0.72,0.29,1,0,0.55-0.1.38-0.1.4-0.11.35-0.23.17-0.29.13-0.56,0c0-.22.3-0.19,0.3-0.19l0.2-.13a0.21,0.21,0,0,1,0-.36l-0.1-.2-0.18.17-0.12.22c-0.19.19-.21,0-0.21,0l0-.4,0-.34-0.1-.41,0-.29a1.35,1.35,0,0,1,.35-1.1l-0.08-.24-0.25-.64-0.34-.55a8.53,8.53,0,0,1-.74-1.19,8.06,8.06,0,0,1-.37-1.53,3.82,3.82,0,0,1-.26-1.11l-0.3-1.26-0.34-.75a4.92,4.92,0,0,0-.07,2.19l0.11,0.55c0.31,0.91.08,1,.08,1a1.22,1.22,0,0,0,0,.75l0.07,0.56,0.06,0.54,0.08,0.55a5.37,5.37,0,0,1,.1,2.19l-0.05.67-0.16,1.4a24,24,0,0,1-1,4.48l-0.15.24-0.12.38v0.83l0,0.37,0,0.37a7.61,7.61,0,0,1-.39,3.47l-1,3.32a5.3,5.3,0,0,0-.17.73,2,2,0,0,0,.18.72l0.61,0.79,0.42,0.33L239.9,379c0,0.31-.23.28-0.23,0.28-0.08.24-.24,0-0.24,0a0.21,0.21,0,0,1-.38,0c0,0.2-.26.08-0.26,0.08l-0.22,0a1.22,1.22,0,0,1-.89-0.22,0.36,0.36,0,0,0-.37-0.16c-0.93.06-.18-1.16-0.18-1.16a0.63,0.63,0,0,0,0-.42,0.72,0.72,0,0,1,.13-0.49,3.24,3.24,0,0,0,.19-0.69V373.7a3.59,3.59,0,0,0,0-.71,6.14,6.14,0,0,1,.44-3.6l0.07-.29a8,8,0,0,1-.15-2.57,18,18,0,0,0-.18-2.38l0-1.63-0.15.37c-0.13.75-.82,3-0.82,3l-0.49,1.83-0.31,1.23a2.78,2.78,0,0,1-.82,1.21l-0.06.78a3.14,3.14,0,0,1-.84,2.09l-0.76,1.75a1.57,1.57,0,0,0-.11.6,0.85,0.85,0,0,1,0,.78l-0.15.16,0,0.43-0.14.2-0.33.77-0.21.61-0.07.46a0.52,0.52,0,0,1-.46.36h-0.41l-0.3-.09c-0.41.29-.41,0-0.41,0-0.47,0-.4-0.51-0.4-0.51a0.62,0.62,0,0,1,0-.76l0.29-.31,0.49-.44,0.27-.34,0.29-.46,0.1-.26a0.46,0.46,0,0,1,.1-0.52L232,375v-1.53c0-3.58,1-4.39,1-4.39l0.36-.66a1.7,1.7,0,0,0,.17-1,16.25,16.25,0,0,1,0-5.64l0.12-1.19,0-.92,0-.86a2.7,2.7,0,0,1,0-1.3,1.76,1.76,0,0,0,0-.69,2.76,2.76,0,0,1-.1-1.19v-1l0-.3-0.05-.28-0.1-.23-0.07-.35,0-.34-0.11-.28a1.81,1.81,0,0,1-.08-0.22l-0.1.22-0.29,1.25a3.85,3.85,0,0,1-.26,1.11,8,8,0,0,1-.38,1.53,8.63,8.63,0,0,1-.74,1.19l-0.34.55-0.25.64-0.08.24a1.34,1.34,0,0,1,.34,1.09l0,0.3-0.1.4,0,0.34,0,0.41s0,0.22-.21,0l-0.12-.22-0.18-.17-0.1.2a0.2,0.2,0,0,1,0,.35l0.2,0.13s0.34,0,.29.19l-0.56,0-0.29-.12-0.22-.17-0.12-.34-0.1-.41-0.1-.38,0-.55,0.3-1,0.06-.72,0.15-.5a22.64,22.64,0,0,1,.89-4.45,7.47,7.47,0,0,0,.53-1.53,4.9,4.9,0,0,1,.21-1.71,2,2,0,0,0,0-.54s-0.09-2.3,1-2.84a1.44,1.44,0,0,1,.33-0.15l0.06,0H233a2.16,2.16,0,0,1,.37-0.06h0.11a1.29,1.29,0,0,0,.53-0.11,5.4,5.4,0,0,1,1.57-.56c0.31-.2.26-0.33,0.26-0.33v-0.58Z" transform="translate(-179.89 -340.99)"/><path class="cls-2" d="M245.84,348.32c5.33,10.67,0,21.71,0,21.71" transform="translate(-179.89 -340.99)"/><path class="cls-3" d="M248.86,350.32c2.6,6.82,1.24,13.51.12,17.07" transform="translate(-179.89 -340.99)"/><path class="cls-4" d="M251.6,352.16a26.32,26.32,0,0,1,.07,13.19" transform="translate(-179.89 -340.99)"/><circle class="cls-1" cx="146.56" cy="14.04" r="4.56"/><circle class="cls-1" cx="146.56" cy="27.04" r="4.56"/><line class="cls-5" x1="143.8" y1="14.18" x2="76.37" y2="15.31"/><polygon class="cls-1" points="77.5 14.23 76.55 15.3 77.61 16.26 76.75 16.3 75.68 15.34 76.64 14.27 77.5 14.23"/><line class="cls-5" x1="143.54" y1="27.12" x2="76.37" y2="20.53"/><polygon class="cls-1" points="77.64 19.61 76.54 20.55 77.48 21.64 76.61 21.57 75.68 20.48 76.78 19.55 77.64 19.61"/><line class="cls-5" x1="9.12" y1="14.03" x2="47.03" y2="17.85"/><polygon class="cls-1" points="45.76 18.76 46.86 17.83 45.93 16.73 46.79 16.8 47.72 17.9 46.62 18.83 45.76 18.76"/><circle class="cls-1" cx="4.56" cy="74.03" r="4.56"/><circle class="cls-1" cx="4.56" cy="54.03" r="4.56"/><circle class="cls-1" cx="4.56" cy="34.04" r="4.56"/><circle class="cls-1" cx="4.56" cy="14.04" r="4.56"/><text class="cls-6" transform="translate(1.85 76.83)">D</text><text class="cls-6" transform="translate(1.59 56.95)">C</text><text class="cls-6" transform="translate(1.85 36.83)">B</text><text class="cls-6" transform="translate(1.85 16.83)">A</text><text class="cls-6" transform="translate(143.85 16.83)">A</text><text class="cls-6" transform="translate(143.85 29.83)">A</text></svg>