<svg id="Picture" xmlns="http://www.w3.org/2000/svg" viewBox="0 0 65.18 81.91"><defs><style>.cls-1{fill:#6d6863;}.cls-2{fill:none;stroke:#635a54;stroke-linecap:round;stroke-width:0.5px;stroke-dasharray:0 1;}.cls-3{font-size:9px;fill:#fff;font-family:Source Sans Pro;}</style></defs><title>virus1</title><path class="cls-1" d="M66.53,388.8l0-.64-0.07-.28-0.11,0c-0.26,0-.33-0.75-0.33-0.75a0.38,0.38,0,0,1,.18-0.5l0-.39v-0.3a1.58,1.58,0,0,1,1.75-1.43,1.7,1.7,0,0,1,1.51,2l0.06,0.15c0.35,0.09.07,0.92,0.07,0.92,0,0.35-.21.36-0.21,0.36l0,0.42-0.1.83a0.74,0.74,0,0,0,.36.64,13.69,13.69,0,0,0,2.07.86l0.51,0.08,0.24,0.13c1.21,0.39,1.12,2.89,1.12,2.89a2,2,0,0,0,0,.55,4.9,4.9,0,0,1,.21,1.7,7.19,7.19,0,0,0,.52,1.54,22.87,22.87,0,0,1,.88,4.45l0.15,0.5,0.06,0.72,0.29,1,0,0.55-0.1.38-0.1.41-0.11.35-0.23.17-0.29.13-0.56,0c0-.22.3-0.19,0.3-0.19l0.2-.13a0.21,0.21,0,0,1,0-.36l-0.1-.21-0.18.17-0.12.22c-0.19.19-.21,0-0.21,0l0-.41,0-.34-0.1-.41,0-.29a1.35,1.35,0,0,1,.35-1.1l-0.08-.24-0.25-.64-0.34-.55A8.58,8.58,0,0,1,73,400.5a8.07,8.07,0,0,1-.37-1.53,3.81,3.81,0,0,1-.26-1.11l-0.3-1.25-0.34-.75a4.92,4.92,0,0,0-.07,2.19l0.11,0.55c0.31,0.91.08,1,.08,1a1.22,1.22,0,0,0,0,.75L72,401,72,401.49,72.1,402a5.36,5.36,0,0,1,.1,2.19l-0.05.67L72,406.3a24,24,0,0,1-1,4.48l-0.15.24-0.12.38v0.83l0,0.37,0,0.37a7.6,7.6,0,0,1-.39,3.47l-1,3.32a5.3,5.3,0,0,0-.17.73,2,2,0,0,0,.18.72l0.61,0.8,0.42,0.33,0.21,0.14c0,0.31-.23.28-0.23,0.28-0.08.24-.24,0-0.24,0a0.21,0.21,0,0,1-.38,0c0,0.2-.26.08-0.26,0.08l-0.22,0a1.22,1.22,0,0,1-.89-0.22,0.36,0.36,0,0,0-.37-0.16c-0.93.06-.18-1.16-0.18-1.16a0.64,0.64,0,0,0,0-.42,0.72,0.72,0,0,1,.13-0.49,3.24,3.24,0,0,0,.19-0.69v-2.55a3.59,3.59,0,0,0,0-.71,6.14,6.14,0,0,1,.44-3.6l0.07-.29a8,8,0,0,1-.15-2.57,18,18,0,0,0-.18-2.38l0-1.63-0.15.37c-0.13.75-.82,3-0.82,3l-0.49,1.84-0.31,1.23a2.77,2.77,0,0,1-.82,1.21l-0.06.78a3.13,3.13,0,0,1-.84,2.08l-0.76,1.75a1.57,1.57,0,0,0-.11.6,0.85,0.85,0,0,1,0,.78l-0.15.16,0,0.43-0.14.2-0.33.77-0.21.6-0.07.46a0.52,0.52,0,0,1-.46.36H62l-0.3-.09c-0.41.29-.41,0-0.41,0-0.47,0-.4-0.52-0.4-0.52a0.62,0.62,0,0,1,0-.76l0.29-.31,0.49-.44,0.27-.34,0.29-.46,0.1-.27a0.46,0.46,0,0,1,.1-0.51l0.16-.34V417c0-3.58,1-4.39,1-4.39l0.36-.66a1.7,1.7,0,0,0,.17-1,16.25,16.25,0,0,1,0-5.64l0.12-1.19,0-.92,0-.86a2.7,2.7,0,0,1,0-1.3,1.76,1.76,0,0,0,0-.69,2.77,2.77,0,0,1-.1-1.19v-1l0-.3-0.05-.28-0.1-.23L64,396.95l0-.34-0.11-.28a1.77,1.77,0,0,1-.08-0.22l-0.1.22-0.29,1.25a3.85,3.85,0,0,1-.26,1.11,8,8,0,0,1-.38,1.54,8.62,8.62,0,0,1-.74,1.19L61.7,402l-0.25.64-0.08.24a1.33,1.33,0,0,1,.34,1.09l0,0.3-0.1.4,0,0.34,0,0.41s0,0.22-.21,0l-0.12-.22L61.09,405l-0.1.2a0.2,0.2,0,0,1,0,.35l0.2,0.13s0.34,0,.29.19l-0.56,0-0.29-.12-0.22-.17-0.12-.34-0.1-.41-0.1-.37,0-.55,0.3-1,0.06-.72,0.15-.5a22.64,22.64,0,0,1,.89-4.45,7.46,7.46,0,0,0,.53-1.53,4.9,4.9,0,0,1,.21-1.71,2,2,0,0,0,0-.54s-0.09-2.3,1-2.84a1.48,1.48,0,0,1,.33-0.15l0.06,0h0.11a2,2,0,0,1,.37-0.06h0.11a1.31,1.31,0,0,0,.53-0.11,5.39,5.39,0,0,1,1.57-.56c0.31-.21.26-0.33,0.26-0.33V388.8Z" transform="translate(-10.53 -340.99)"/><path class="cls-1" d="M66.53,345.31l0-.64-0.07-.28-0.11,0c-0.26,0-.33-0.75-0.33-0.75a0.38,0.38,0,0,1,.18-0.5l0-.39v-0.3A1.58,1.58,0,0,1,67.94,341a1.7,1.7,0,0,1,1.51,2l0.06,0.15c0.35,0.09.07,0.92,0.07,0.92,0,0.35-.21.36-0.21,0.36l0,0.42-0.1.83a0.74,0.74,0,0,0,.36.64,13.59,13.59,0,0,0,2.07.86l0.51,0.08,0.24,0.13c1.21,0.39,1.12,2.89,1.12,2.89a2,2,0,0,0,0,.55,4.91,4.91,0,0,1,.21,1.7,7.18,7.18,0,0,0,.52,1.54,22.88,22.88,0,0,1,.88,4.45l0.15,0.5,0.06,0.72,0.29,1,0,0.55-0.1.38-0.1.4-0.11.35-0.23.17-0.29.13-0.56,0c0-.22.3-0.19,0.3-0.19l0.2-.13a0.21,0.21,0,0,1,0-.36l-0.1-.2L74.5,362l-0.12.22c-0.19.19-.21,0-0.21,0l0-.4,0-.34L74,361l0-.29a1.35,1.35,0,0,1,.35-1.1l-0.08-.24-0.25-.64-0.34-.55A8.53,8.53,0,0,1,73,357a8.06,8.06,0,0,1-.37-1.53,3.82,3.82,0,0,1-.26-1.11l-0.3-1.26-0.34-.75a4.92,4.92,0,0,0-.07,2.19l0.11,0.55c0.31,0.91.08,1,.08,1a1.22,1.22,0,0,0,0,.75L72,357.47,72,358l0.08,0.55a5.37,5.37,0,0,1,.1,2.19l-0.05.67L72,362.82a24,24,0,0,1-1,4.48l-0.15.24-0.12.38v0.83l0,0.37,0,0.37a7.61,7.61,0,0,1-.39,3.47l-1,3.32a5.3,5.3,0,0,0-.17.73,2,2,0,0,0,.18.72l0.61,0.79,0.42,0.33L70.54,379c0,0.31-.23.28-0.23,0.28-0.08.24-.24,0-0.24,0a0.21,0.21,0,0,1-.38,0c0,0.2-.26.08-0.26,0.08l-0.22,0a1.22,1.22,0,0,1-.89-0.22,0.36,0.36,0,0,0-.37-0.16c-0.93.06-.18-1.16-0.18-1.16a0.63,0.63,0,0,0,0-.42,0.72,0.72,0,0,1,.13-0.49,3.24,3.24,0,0,0,.19-0.69V373.7a3.59,3.59,0,0,0,0-.71,6.14,6.14,0,0,1,.44-3.6l0.07-.29a8,8,0,0,1-.15-2.57,18,18,0,0,0-.18-2.38l0-1.63-0.15.37c-0.13.75-.82,3-0.82,3l-0.49,1.83-0.31,1.23a2.78,2.78,0,0,1-.82,1.21l-0.06.78a3.14,3.14,0,0,1-.84,2.09l-0.76,1.75a1.57,1.57,0,0,0-.11.6,0.85,0.85,0,0,1,0,.78l-0.15.16,0,0.43-0.14.2-0.33.77-0.21.61-0.07.46a0.52,0.52,0,0,1-.46.36H62l-0.3-.09c-0.41.29-.41,0-0.41,0-0.47,0-.4-0.51-0.4-0.51a0.62,0.62,0,0,1,0-.76l0.29-.31,0.49-.44,0.27-.34,0.29-.46,0.1-.26a0.46,0.46,0,0,1,.1-0.52l0.16-.34v-1.53c0-3.58,1-4.39,1-4.39l0.36-.66a1.7,1.7,0,0,0,.17-1,16.25,16.25,0,0,1,0-5.64l0.12-1.19,0-.92,0-.86a2.7,2.7,0,0,1,0-1.3,1.76,1.76,0,0,0,0-.69,2.76,2.76,0,0,1-.1-1.19v-1l0-.3L64.22,354l-0.1-.23L64,353.47l0-.34-0.11-.28a1.81,1.81,0,0,1-.08-0.22l-0.1.22-0.29,1.25a3.85,3.85,0,0,1-.26,1.11,8,8,0,0,1-.38,1.53,8.63,8.63,0,0,1-.74,1.19l-0.34.55-0.25.64-0.08.24a1.34,1.34,0,0,1,.34,1.09l0,0.3-0.1.4,0,0.34,0,0.41s0,0.22-.21,0l-0.12-.22-0.18-.17-0.1.2a0.2,0.2,0,0,1,0,.35l0.2,0.13s0.34,0,.29.19l-0.56,0-0.29-.12-0.22-.17-0.12-.34-0.1-.41-0.1-.38,0-.55,0.3-1,0.06-.72,0.15-.5a22.64,22.64,0,0,1,.89-4.45,7.47,7.47,0,0,0,.53-1.53,4.9,4.9,0,0,1,.21-1.71,2,2,0,0,0,0-.54s-0.09-2.3,1-2.84a1.44,1.44,0,0,1,.33-0.15l0.06,0h0.11a2.16,2.16,0,0,1,.37-0.06h0.11a1.29,1.29,0,0,0,.53-0.11,5.4,5.4,0,0,1,1.57-.56c0.31-.2.26-0.33,0.26-0.33v-0.58Z" transform="translate(-10.53 -340.99)"/><line class="cls-2" x1="9.12" y1="14.03" x2="47.03" y2="17.85"/><polygon class="cls-1" points="45.76 18.76 46.86 17.83 45.93 16.73 46.79 16.8 47.72 17.9 46.62 18.83 45.76 18.76"/><line class="cls-2" x1="8.07" y1="13.93" x2="47.19" y2="54.44"/><polygon class="cls-1" points="45.62 54.45 47.05 54.33 46.93 52.89 47.59 53.45 47.72 54.88 46.28 55.01 45.62 54.45"/><line class="cls-2" x1="8.56" y1="74.18" x2="47.05" y2="63.03"/><polygon class="cls-1" points="46.13 64.3 46.88 63.07 45.65 62.33 46.49 62.12 47.72 62.87 46.97 64.1 46.13 64.3"/><circle class="cls-1" cx="4.56" cy="74.03" r="4.56"/><circle class="cls-1" cx="4.56" cy="54.03" r="4.56"/><circle class="cls-1" cx="4.56" cy="34.04" r="4.56"/><circle class="cls-1" cx="4.56" cy="14.04" r="4.56"/><text class="cls-3" transform="translate(1.85 76.83)">D</text><text class="cls-3" transform="translate(1.59 56.95)">C</text><text class="cls-3" transform="translate(1.85 36.83)">B</text><text class="cls-3" transform="translate(1.85 16.83)">A</text></svg>